<svg width="103" height="103" viewBox="0 0 103 103" fill="none" xmlns="http://www.w3.org/2000/svg">
<path d="M91.9355 20.3184H71.7805L69.8205 14.4381C68.5861 10.7355 65.1346 8.24805 61.2321 8.24805H41.7679C37.8654 8.24805 34.4139 10.7355 33.1797 14.4381L31.2195 20.3184H26.3535V15.2891C26.3535 11.4066 23.1949 8.24805 19.3125 8.24805H15.2891C11.4066 8.24805 8.24805 11.4066 8.24805 15.2891V20.6829C3.50683 21.9318 0 26.2549 0 31.3828V83.6875C0 89.7884 4.96351 94.752 11.0645 94.752H91.9355C98.0365 94.752 103 89.7884 103 83.6875V31.3828C103 25.2819 98.0365 20.3184 91.9355 20.3184ZM14.2832 15.2891C14.2832 14.7344 14.7344 14.2832 15.2891 14.2832H19.3125C19.8671 14.2832 20.3184 14.7344 20.3184 15.2891V20.3184H14.2832V15.2891ZM96.9648 83.6875C96.9648 86.4607 94.7087 88.7168 91.9355 88.7168H11.0645C8.2913 88.7168 6.03516 86.4607 6.03516 83.6875V31.3828C6.03516 28.6097 8.2913 26.3535 11.0645 26.3535H33.3945C34.6933 26.3535 35.8464 25.5225 36.2572 24.2901L38.905 16.3466C39.3166 15.1124 40.4669 14.2832 41.7679 14.2832H61.2321C62.5331 14.2832 63.6836 15.1124 64.0948 16.3464L66.7426 24.2901C67.1536 25.5225 68.3067 26.3535 69.6055 26.3535H91.9355C94.7087 26.3535 96.9648 28.6097 96.9648 31.3828V83.6875Z" fill="#B2B2B2"/>
<path d="M87.7109 38.4238C89.3775 38.4238 90.7285 37.0728 90.7285 35.4062C90.7285 33.7397 89.3775 32.3887 87.7109 32.3887C86.0444 32.3887 84.6934 33.7397 84.6934 35.4062C84.6934 37.0728 86.0444 38.4238 87.7109 38.4238Z" fill="#B2B2B2"/>
<path d="M21.3242 32.3887H15.2891C13.6226 32.3887 12.2715 33.7397 12.2715 35.4062C12.2715 37.0728 13.6226 38.4238 15.2891 38.4238H21.3242C22.9907 38.4238 24.3418 37.0728 24.3418 35.4062C24.3418 33.7397 22.9907 32.3887 21.3242 32.3887Z" fill="#B2B2B2"/>
<path d="M51.5 82.6816C36.525 82.6816 24.3418 70.4985 24.3418 55.5234C24.3418 40.5484 36.525 28.3652 51.5 28.3652C66.475 28.3652 78.6582 40.5484 78.6582 55.5234C78.6582 70.4985 66.475 82.6816 51.5 82.6816ZM51.5 34.4004C39.8528 34.4004 30.377 43.8762 30.377 55.5234C30.377 67.1707 39.8528 76.6465 51.5 76.6465C63.1472 76.6465 72.623 67.1707 72.623 55.5234C72.623 43.8762 63.1472 34.4004 51.5 34.4004Z" fill="#B2B2B2"/>
<path d="M51.5 70.6113C43.1805 70.6113 36.4121 63.8429 36.4121 55.5234C36.4121 47.204 43.1805 40.4355 51.5 40.4355C59.8195 40.4355 66.5879 47.204 66.5879 55.5234C66.5879 63.8429 59.8195 70.6113 51.5 70.6113ZM51.5 46.4707C46.5083 46.4707 42.4473 50.5318 42.4473 55.5234C42.4473 60.5151 46.5083 64.5762 51.5 64.5762C56.4917 64.5762 60.5527 60.5151 60.5527 55.5234C60.5527 50.5318 56.4917 46.4707 51.5 46.4707Z" fill="#B2B2B2"/>
</svg>
