<svg width="20" height="20" viewBox="0 0 20 20" fill="none" xmlns="http://www.w3.org/2000/svg">
<g clip-path="url(#clip0)">
<path d="M10 20C15.5229 20 20 15.5229 20 10C20 4.47716 15.5229 0 10 0C4.47716 0 0 4.47716 0 10C0 15.5229 4.47716 20 10 20Z" fill="#E24C4B"/>
<path d="M20 9.99995C20 15.5 15.5 20 10 20C6.81253 20 4.00002 18.5625 2.1875 16.25C3.875 17.625 6.06251 18.4375 8.43749 18.4375C13.9375 18.4375 18.4375 13.9375 18.4375 8.43748C18.4375 6.06251 17.625 3.875 16.25 2.1875C18.5625 3.99993 20 6.81243 20 9.99995Z" fill="#D1403F"/>
<path d="M14.5626 14.5626C14.1876 14.9376 13.5626 14.9376 13.1876 14.5626L10.0001 11.3751L6.81262 14.5626C6.43763 14.9376 5.8126 14.9376 5.43761 14.5626C5.06263 14.1876 5.06263 13.5626 5.43761 13.1876L8.6251 10.0001L5.43761 6.81262C5.06263 6.43763 5.06263 5.8126 5.43761 5.43761C5.8126 5.06263 6.43763 5.06263 6.81262 5.43761L10.0001 8.6251L13.1876 5.43761C13.5626 5.06263 14.1876 5.06263 14.5626 5.43761C14.9376 5.8126 14.9376 6.43763 14.5626 6.81262L11.3751 10.0001L14.5626 13.1876C14.9376 13.5626 14.9376 14.1876 14.5626 14.5626Z" fill="white"/>
</g>
<defs>
<clipPath id="clip0">
<rect width="20" height="20" fill="white"/>
</clipPath>
</defs>
</svg>
