<svg width="250" height="198" viewBox="0 0 250 198" fill="none" xmlns="http://www.w3.org/2000/svg">
<path d="M208.295 65.8962C196.741 19.8671 150.061 -8.08004 104.032 3.47436C68.061 12.5041 41.9422 43.593 39.2511 80.5816C13.7105 84.7936 -3.58011 108.913 0.631831 134.453C4.37605 157.159 24.0507 173.788 47.0628 173.696H86.121V158.073H47.0628C29.8059 158.073 15.8162 144.083 15.8162 126.827C15.8162 109.57 29.8059 95.58 47.0628 95.58C51.3773 95.58 54.8744 92.0828 54.8744 87.7683C54.8354 48.9401 86.2807 17.4318 125.109 17.3932C158.72 17.3596 187.654 41.1216 194.156 74.098C194.798 77.3906 197.47 79.9059 200.796 80.3473C222.152 83.3885 236.999 103.166 233.958 124.522C231.227 143.698 214.854 157.976 195.484 158.073H164.237V173.696H195.484C225.684 173.605 250.091 149.049 250 118.849C249.923 93.7106 232.716 71.8619 208.295 65.8962Z" fill="#B3B3B3"/>
<path d="M119.633 97.8459L88.3864 129.092L99.4008 140.107L117.368 122.218V197.132H132.991V122.218L150.88 140.107L161.894 129.092L130.647 97.8459C127.6 94.8169 122.68 94.8169 119.633 97.8459Z" fill="#B3B3B3"/>
</svg>
